<mxfile host="app.diagrams.net" modified="2024-03-02T06:08:29.446Z" agent="Mozilla/5.0 (Windows NT 10.0; Win64; x64) AppleWebKit/537.36 (KHTML, like Gecko) Chrome/122.0.0.0 Safari/537.36 Edg/122.0.0.0" etag="yaCUUkYh5aEjBD_eNXMK" version="24.0.0" type="device">
  <diagram name="Page-1" id="1KbjQe3Kti2jhC_EwoSa">
    <mxGraphModel dx="635" dy="390" grid="1" gridSize="10" guides="1" tooltips="1" connect="1" arrows="1" fold="1" page="1" pageScale="1" pageWidth="1200" pageHeight="800" math="0" shadow="0">
      <root>
        <mxCell id="0" />
        <mxCell id="1" parent="0" />
        <mxCell id="_iaCpe0De2pczfi3yYiM-4" value="" style="edgeStyle=orthogonalEdgeStyle;rounded=0;orthogonalLoop=1;jettySize=auto;html=1;" parent="1" source="_iaCpe0De2pczfi3yYiM-1" target="_iaCpe0De2pczfi3yYiM-2" edge="1">
          <mxGeometry relative="1" as="geometry" />
        </mxCell>
        <mxCell id="_iaCpe0De2pczfi3yYiM-1" value="&lt;h1&gt;begin&lt;/h1&gt;&lt;p&gt;Greetings.\n\nI am ^#fb0000;A^#66ccff;V^#fb0000;A^reset;, also known as an ^#66ccff;Artificially Voiced Automaton^reset;.\n\nI am an artificially conscious hivemind, created by the Knightfall Initiative to serve as an assistant, and to help them with their mission.&lt;/p&gt;" style="text;html=1;spacing=5;spacingTop=-20;whiteSpace=wrap;overflow=hidden;rounded=0;strokeColor=default;opacity=50;" parent="1" vertex="1">
          <mxGeometry x="20" y="340" width="330" height="120" as="geometry" />
        </mxCell>
        <mxCell id="_iaCpe0De2pczfi3yYiM-5" value="" style="edgeStyle=orthogonalEdgeStyle;rounded=0;orthogonalLoop=1;jettySize=auto;html=1;" parent="1" source="_iaCpe0De2pczfi3yYiM-2" target="_iaCpe0De2pczfi3yYiM-3" edge="1">
          <mxGeometry relative="1" as="geometry" />
        </mxCell>
        <mxCell id="_iaCpe0De2pczfi3yYiM-2" value="&lt;h1&gt;intro0&lt;/h1&gt;&lt;p&gt;Do not be alarmed, astute traveler, for we are here to serve.\n\nI am here to provide assistance if needed, and to answer questions regarding us and our purpose here.&lt;/p&gt;" style="text;html=1;spacing=5;spacingTop=-20;whiteSpace=wrap;overflow=hidden;rounded=0;strokeColor=default;opacity=50;" parent="1" vertex="1">
          <mxGeometry x="380" y="340" width="330" height="120" as="geometry" />
        </mxCell>
        <mxCell id="_iaCpe0De2pczfi3yYiM-11" value="" style="edgeStyle=orthogonalEdgeStyle;rounded=0;orthogonalLoop=1;jettySize=auto;html=1;" parent="1" source="_iaCpe0De2pczfi3yYiM-3" target="_iaCpe0De2pczfi3yYiM-9" edge="1">
          <mxGeometry relative="1" as="geometry" />
        </mxCell>
        <mxCell id="_iaCpe0De2pczfi3yYiM-12" value="" style="edgeStyle=orthogonalEdgeStyle;rounded=0;orthogonalLoop=1;jettySize=auto;html=1;" parent="1" source="_iaCpe0De2pczfi3yYiM-3" target="_iaCpe0De2pczfi3yYiM-8" edge="1">
          <mxGeometry relative="1" as="geometry" />
        </mxCell>
        <mxCell id="_iaCpe0De2pczfi3yYiM-3" value="&lt;h1&gt;intro1&lt;/h1&gt;&lt;p&gt;How may I be of assistance?&lt;/p&gt;" style="text;html=1;spacing=5;spacingTop=-20;whiteSpace=wrap;overflow=hidden;rounded=0;strokeColor=default;opacity=50;" parent="1" vertex="1">
          <mxGeometry x="740" y="340" width="330" height="120" as="geometry" />
        </mxCell>
        <mxCell id="_iaCpe0De2pczfi3yYiM-16" value="" style="edgeStyle=orthogonalEdgeStyle;rounded=0;orthogonalLoop=1;jettySize=auto;html=1;" parent="1" source="_iaCpe0De2pczfi3yYiM-6" target="_iaCpe0De2pczfi3yYiM-15" edge="1">
          <mxGeometry relative="1" as="geometry" />
        </mxCell>
        <mxCell id="_iaCpe0De2pczfi3yYiM-6" value="&lt;h1&gt;intro2a&lt;/h1&gt;&lt;p&gt;We are the ^#66ccff;Knightfall Initiative^reset;.\n\nWe are children of the Terrene Protectorate. An idea that was given form, molded in the tenets of liberty, xeno acceptance, and a martial culture.\n\nA nation that comprises a myriad of different races, origins, and traditions from across the galaxy, split across a divergent ensemble of planets, located in the southeastern region of the galactic outer rim.&lt;/p&gt;" style="text;html=1;spacing=5;spacingTop=-20;whiteSpace=wrap;overflow=hidden;rounded=0;strokeColor=default;opacity=50;" parent="1" vertex="1">
          <mxGeometry x="1110" y="195" width="330" height="170" as="geometry" />
        </mxCell>
        <mxCell id="_iaCpe0De2pczfi3yYiM-7" value="&lt;h1&gt;intro2b&lt;/h1&gt;&lt;p&gt;- - -&lt;/p&gt;" style="text;html=1;spacing=5;spacingTop=-20;whiteSpace=wrap;overflow=hidden;rounded=0;strokeColor=default;opacity=50;" parent="1" vertex="1">
          <mxGeometry x="1110" y="460" width="330" height="120" as="geometry" />
        </mxCell>
        <mxCell id="_iaCpe0De2pczfi3yYiM-13" value="" style="edgeStyle=orthogonalEdgeStyle;rounded=0;orthogonalLoop=1;jettySize=auto;html=1;" parent="1" source="_iaCpe0De2pczfi3yYiM-8" target="_iaCpe0De2pczfi3yYiM-6" edge="1">
          <mxGeometry relative="1" as="geometry" />
        </mxCell>
        <mxCell id="_iaCpe0De2pczfi3yYiM-8" value="What is the &#39;Knightfall Initiative&#39;?" style="text;html=1;align=center;verticalAlign=middle;whiteSpace=wrap;rounded=0;fillColor=#3399FF;opacity=50;strokeColor=#004C99;" parent="1" vertex="1">
          <mxGeometry x="792.5" y="265" width="225" height="30" as="geometry" />
        </mxCell>
        <mxCell id="_iaCpe0De2pczfi3yYiM-14" value="" style="edgeStyle=orthogonalEdgeStyle;rounded=0;orthogonalLoop=1;jettySize=auto;html=1;" parent="1" source="_iaCpe0De2pczfi3yYiM-9" target="_iaCpe0De2pczfi3yYiM-7" edge="1">
          <mxGeometry relative="1" as="geometry" />
        </mxCell>
        <mxCell id="_iaCpe0De2pczfi3yYiM-9" value="&quot;What are you guys doing on this planet?&quot;" style="text;html=1;align=center;verticalAlign=middle;whiteSpace=wrap;rounded=0;fillColor=#3399FF;opacity=50;strokeColor=#004C99;" parent="1" vertex="1">
          <mxGeometry x="792.5" y="505" width="225" height="30" as="geometry" />
        </mxCell>
        <mxCell id="_iaCpe0De2pczfi3yYiM-18" value="" style="edgeStyle=orthogonalEdgeStyle;rounded=0;orthogonalLoop=1;jettySize=auto;html=1;" parent="1" source="_iaCpe0De2pczfi3yYiM-15" target="_iaCpe0De2pczfi3yYiM-17" edge="1">
          <mxGeometry relative="1" as="geometry" />
        </mxCell>
        <mxCell id="_iaCpe0De2pczfi3yYiM-15" value="&lt;h1&gt;intro2a1&lt;/h1&gt;&lt;p&gt;Indeed, it is a curious case, is it not traveler? Human history can only dream of such idealistic concepts mingling without fault or folly.\n\nBut Knightfall is different.\n\nWe are all of us united by a single, defined purpose:\nTo protect, to preserve, and to persevere against the ^#fb0000;great devourer^reset;.&lt;/p&gt;" style="text;html=1;spacing=5;spacingTop=-20;whiteSpace=wrap;overflow=hidden;rounded=0;strokeColor=default;opacity=50;" parent="1" vertex="1">
          <mxGeometry x="1470" y="195" width="330" height="170" as="geometry" />
        </mxCell>
        <mxCell id="_iaCpe0De2pczfi3yYiM-20" value="" style="edgeStyle=orthogonalEdgeStyle;rounded=0;orthogonalLoop=1;jettySize=auto;html=1;" parent="1" source="_iaCpe0De2pczfi3yYiM-17" target="_iaCpe0De2pczfi3yYiM-19" edge="1">
          <mxGeometry relative="1" as="geometry" />
        </mxCell>
        <mxCell id="_iaCpe0De2pczfi3yYiM-17" value="&lt;h1&gt;intro2a2&lt;/h1&gt;&lt;p&gt;Those are the words that gave birth to our brotherhood. It is our undying duty and our unifying cause that our great nation was founded upon.\n\nWe are your friends, traveler. We are here to help, and we hope you can help us too.&lt;/p&gt;" style="text;html=1;spacing=5;spacingTop=-20;whiteSpace=wrap;overflow=hidden;rounded=0;strokeColor=default;opacity=50;" parent="1" vertex="1">
          <mxGeometry x="1830" y="195" width="330" height="170" as="geometry" />
        </mxCell>
        <mxCell id="_iaCpe0De2pczfi3yYiM-22" value="" style="edgeStyle=orthogonalEdgeStyle;rounded=0;orthogonalLoop=1;jettySize=auto;html=1;" parent="1" source="_iaCpe0De2pczfi3yYiM-19" target="_iaCpe0De2pczfi3yYiM-21" edge="1">
          <mxGeometry relative="1" as="geometry" />
        </mxCell>
        <mxCell id="_iaCpe0De2pczfi3yYiM-24" value="" style="edgeStyle=orthogonalEdgeStyle;rounded=0;orthogonalLoop=1;jettySize=auto;html=1;" parent="1" source="_iaCpe0De2pczfi3yYiM-19" target="_iaCpe0De2pczfi3yYiM-23" edge="1">
          <mxGeometry relative="1" as="geometry" />
        </mxCell>
        <mxCell id="_iaCpe0De2pczfi3yYiM-19" value="&lt;h1&gt;intro2a3&lt;/h1&gt;&lt;p&gt;With the galaxy hushing down as the dying light of the Terrene Protectorate flickers, a great struggle will soon be upon us.\n\nIt is for this reason that we are expanding beyond our domain, bringing the message of the end, and rallying a force to challenge it once more.&lt;/p&gt;" style="text;html=1;spacing=5;spacingTop=-20;whiteSpace=wrap;overflow=hidden;rounded=0;strokeColor=default;opacity=50;" parent="1" vertex="1">
          <mxGeometry x="2190" y="195" width="330" height="170" as="geometry" />
        </mxCell>
        <mxCell id="_iaCpe0De2pczfi3yYiM-27" value="" style="edgeStyle=orthogonalEdgeStyle;rounded=0;orthogonalLoop=1;jettySize=auto;html=1;" parent="1" source="_iaCpe0De2pczfi3yYiM-21" target="_iaCpe0De2pczfi3yYiM-25" edge="1">
          <mxGeometry relative="1" as="geometry" />
        </mxCell>
        <mxCell id="_iaCpe0De2pczfi3yYiM-21" value="&#39;The great devourer&#39;?" style="text;html=1;align=center;verticalAlign=middle;whiteSpace=wrap;rounded=0;fillColor=#3399FF;opacity=50;strokeColor=#004C99;" parent="1" vertex="1">
          <mxGeometry x="2242.5" y="95" width="225" height="30" as="geometry" />
        </mxCell>
        <mxCell id="fxKSSTWu_14zlkZmofw0-10" value="" style="edgeStyle=orthogonalEdgeStyle;rounded=0;orthogonalLoop=1;jettySize=auto;html=1;" edge="1" parent="1" source="_iaCpe0De2pczfi3yYiM-23" target="fxKSSTWu_14zlkZmofw0-9">
          <mxGeometry relative="1" as="geometry" />
        </mxCell>
        <mxCell id="_iaCpe0De2pczfi3yYiM-23" value="&#39;Children of the Protectorate&#39;?" style="text;html=1;align=center;verticalAlign=middle;whiteSpace=wrap;rounded=0;fillColor=#3399FF;opacity=50;strokeColor=#004C99;" parent="1" vertex="1">
          <mxGeometry x="2242.5" y="435" width="225" height="30" as="geometry" />
        </mxCell>
        <mxCell id="fxKSSTWu_14zlkZmofw0-2" value="" style="edgeStyle=orthogonalEdgeStyle;rounded=0;orthogonalLoop=1;jettySize=auto;html=1;" edge="1" parent="1" source="_iaCpe0De2pczfi3yYiM-25" target="fxKSSTWu_14zlkZmofw0-1">
          <mxGeometry relative="1" as="geometry" />
        </mxCell>
        <mxCell id="_iaCpe0De2pczfi3yYiM-25" value="&lt;h1&gt;intro3a&lt;/h1&gt;&lt;p&gt;They have been called many names since their discovery.\n\nThe Protectorate cited them as the &#39;The Unending&#39;, referring to their colossal scale that seemed to never end.\n\nIt is said that their entire fleet spanned light years across, and that their formation was able to engulf the light of countless stars.&lt;/p&gt;" style="text;html=1;spacing=5;spacingTop=-20;whiteSpace=wrap;overflow=hidden;rounded=0;strokeColor=default;opacity=50;" parent="1" vertex="1">
          <mxGeometry x="2570" y="25" width="330" height="170" as="geometry" />
        </mxCell>
        <mxCell id="fxKSSTWu_14zlkZmofw0-4" value="" style="edgeStyle=orthogonalEdgeStyle;rounded=0;orthogonalLoop=1;jettySize=auto;html=1;" edge="1" parent="1" source="fxKSSTWu_14zlkZmofw0-1" target="fxKSSTWu_14zlkZmofw0-3">
          <mxGeometry relative="1" as="geometry" />
        </mxCell>
        <mxCell id="fxKSSTWu_14zlkZmofw0-1" value="&lt;h1&gt;intro3a1&lt;/h1&gt;&lt;p&gt;Admiral Whitmore, &#39;the First Knight&#39;, labeled them as &#39;The Great Filter&#39;.\n\nRidiculed for his proposal, this name became appropriate when their potential for destruction was made clear during the Battle of Altaris.\n\nTo this day, it is the bloodiest battle in Knightfall&#39;s history.&lt;/p&gt;" style="text;html=1;spacing=5;spacingTop=-20;whiteSpace=wrap;overflow=hidden;rounded=0;strokeColor=default;opacity=50;" vertex="1" parent="1">
          <mxGeometry x="2930" y="25" width="330" height="170" as="geometry" />
        </mxCell>
        <mxCell id="fxKSSTWu_14zlkZmofw0-6" value="" style="edgeStyle=orthogonalEdgeStyle;rounded=0;orthogonalLoop=1;jettySize=auto;html=1;" edge="1" parent="1" source="fxKSSTWu_14zlkZmofw0-3" target="fxKSSTWu_14zlkZmofw0-5">
          <mxGeometry relative="1" as="geometry" />
        </mxCell>
        <mxCell id="fxKSSTWu_14zlkZmofw0-3" value="&lt;h1&gt;intro3a2&lt;/h1&gt;&lt;p&gt;In the years since our first encounter with their kind, we have given them a single name.\n\nWe call them the ^#fb0000;Ravenous Horde^reset;.&lt;/p&gt;" style="text;html=1;spacing=5;spacingTop=-20;whiteSpace=wrap;overflow=hidden;rounded=0;strokeColor=default;opacity=50;" vertex="1" parent="1">
          <mxGeometry x="3290" y="25" width="330" height="170" as="geometry" />
        </mxCell>
        <mxCell id="fxKSSTWu_14zlkZmofw0-8" value="" style="edgeStyle=orthogonalEdgeStyle;rounded=0;orthogonalLoop=1;jettySize=auto;html=1;" edge="1" parent="1" source="fxKSSTWu_14zlkZmofw0-5" target="fxKSSTWu_14zlkZmofw0-7">
          <mxGeometry relative="1" as="geometry" />
        </mxCell>
        <mxCell id="fxKSSTWu_14zlkZmofw0-5" value="&lt;h1&gt;intro3a3&lt;/h1&gt;&lt;p&gt;They are the enemy, traveler. Our enemy. They are the reason why we were created and our continued existence.\n\nThey are destruction and gluttony incarnate, and they will not stop until every living being in the galaxy is consumed by the hivemind.&lt;/p&gt;" style="text;html=1;spacing=5;spacingTop=-20;whiteSpace=wrap;overflow=hidden;rounded=0;strokeColor=default;opacity=50;" vertex="1" parent="1">
          <mxGeometry x="3650" y="25" width="330" height="170" as="geometry" />
        </mxCell>
        <mxCell id="fxKSSTWu_14zlkZmofw0-7" value="&lt;h1&gt;intro3a4&lt;/h1&gt;&lt;p&gt;We have fought them once before, in a war that costed us millions of lives. Entire planets were lost to the aether.\n\nAnd I am afraid that their second coming is inevitable. It is for this reason that we are preparing, and why we need your help.&lt;/p&gt;" style="text;html=1;spacing=5;spacingTop=-20;whiteSpace=wrap;overflow=hidden;rounded=0;strokeColor=default;opacity=50;" vertex="1" parent="1">
          <mxGeometry x="4010" y="25" width="330" height="170" as="geometry" />
        </mxCell>
        <mxCell id="fxKSSTWu_14zlkZmofw0-12" value="" style="edgeStyle=orthogonalEdgeStyle;rounded=0;orthogonalLoop=1;jettySize=auto;html=1;" edge="1" parent="1" source="fxKSSTWu_14zlkZmofw0-9" target="fxKSSTWu_14zlkZmofw0-11">
          <mxGeometry relative="1" as="geometry" />
        </mxCell>
        <mxCell id="fxKSSTWu_14zlkZmofw0-9" value="&lt;h1&gt;intro3b&lt;/h1&gt;&lt;p&gt;Indeed we are, dear traveler.\n\nWe were created a long time ago, during the zenith of the Protectorate&#39;s power.\n\nThose were peaceful times. War was considered obsolete. It was the only time, at least, according to our records, when the galaxy was truly in harmony.&lt;/p&gt;" style="text;html=1;spacing=5;spacingTop=-20;whiteSpace=wrap;overflow=hidden;rounded=0;strokeColor=default;opacity=50;" vertex="1" parent="1">
          <mxGeometry x="2570" y="365" width="330" height="170" as="geometry" />
        </mxCell>
        <mxCell id="fxKSSTWu_14zlkZmofw0-14" value="" style="edgeStyle=orthogonalEdgeStyle;rounded=0;orthogonalLoop=1;jettySize=auto;html=1;" edge="1" parent="1" source="fxKSSTWu_14zlkZmofw0-11" target="fxKSSTWu_14zlkZmofw0-13">
          <mxGeometry relative="1" as="geometry" />
        </mxCell>
        <mxCell id="fxKSSTWu_14zlkZmofw0-11" value="&lt;h1&gt;intro3b1&lt;/h1&gt;&lt;p&gt;All of that changed during that fateful night.\n\nObservers from Earth discovered an unlikely presence moving at a constant vector towards the Milky Way galaxy.\n\nAt first, they dismissed it as a strange cluster of asteroids flung from some distant galaxy that had finished its millennia-long journey.&lt;/p&gt;" style="text;html=1;spacing=5;spacingTop=-20;whiteSpace=wrap;overflow=hidden;rounded=0;strokeColor=default;opacity=50;" vertex="1" parent="1">
          <mxGeometry x="2930" y="365" width="330" height="170" as="geometry" />
        </mxCell>
        <mxCell id="fxKSSTWu_14zlkZmofw0-16" value="" style="edgeStyle=orthogonalEdgeStyle;rounded=0;orthogonalLoop=1;jettySize=auto;html=1;" edge="1" parent="1" source="fxKSSTWu_14zlkZmofw0-13" target="fxKSSTWu_14zlkZmofw0-15">
          <mxGeometry relative="1" as="geometry" />
        </mxCell>
        <mxCell id="fxKSSTWu_14zlkZmofw0-13" value="&lt;h1&gt;intro3b2&lt;/h1&gt;&lt;p&gt;However, things quickly became alarming, as instruments and other observers began picking up signatures of the presence emerging from beyond the galactic veil.\n\nAll of them were moving towards the Milky Way, and within a few days, patches numbering in the millions were discovered.&lt;/p&gt;" style="text;html=1;spacing=5;spacingTop=-20;whiteSpace=wrap;overflow=hidden;rounded=0;strokeColor=default;opacity=50;" vertex="1" parent="1">
          <mxGeometry x="3290" y="365" width="330" height="170" as="geometry" />
        </mxCell>
        <mxCell id="fxKSSTWu_14zlkZmofw0-18" value="" style="edgeStyle=orthogonalEdgeStyle;rounded=0;orthogonalLoop=1;jettySize=auto;html=1;" edge="1" parent="1" source="fxKSSTWu_14zlkZmofw0-15" target="fxKSSTWu_14zlkZmofw0-17">
          <mxGeometry relative="1" as="geometry" />
        </mxCell>
        <mxCell id="fxKSSTWu_14zlkZmofw0-15" value="&lt;h1&gt;intro3b3&lt;/h1&gt;&lt;p&gt;The information was quickly brought up to the Protectorate High Council. All of it was kept secret from the public to prevent unneeded speculation and hysteria.\n\nIn the days that followed, countless debates and discussions erupted among academics, advisors, and politicians alike. Many disputed what the presence was, as well as what the appropriate course of action would be.&lt;/p&gt;" style="text;html=1;spacing=5;spacingTop=-20;whiteSpace=wrap;overflow=hidden;rounded=0;strokeColor=default;opacity=50;" vertex="1" parent="1">
          <mxGeometry x="3650" y="365" width="330" height="170" as="geometry" />
        </mxCell>
        <mxCell id="fxKSSTWu_14zlkZmofw0-20" value="" style="edgeStyle=orthogonalEdgeStyle;rounded=0;orthogonalLoop=1;jettySize=auto;html=1;" edge="1" parent="1" source="fxKSSTWu_14zlkZmofw0-17" target="fxKSSTWu_14zlkZmofw0-19">
          <mxGeometry relative="1" as="geometry" />
        </mxCell>
        <mxCell id="fxKSSTWu_14zlkZmofw0-17" value="&lt;h1&gt;intro3b4&lt;/h1&gt;&lt;p&gt;Over the course of several months, plans were finalized, documents were created, and actors started moving their pieces in secrecy. \n\nProject: ^#66ccff;KNIGHTFALL^reset; was born.&lt;/p&gt;" style="text;html=1;spacing=5;spacingTop=-20;whiteSpace=wrap;overflow=hidden;rounded=0;strokeColor=default;opacity=50;" vertex="1" parent="1">
          <mxGeometry x="4010" y="365" width="330" height="170" as="geometry" />
        </mxCell>
        <mxCell id="fxKSSTWu_14zlkZmofw0-19" value="&lt;h1&gt;intro3b5&lt;/h1&gt;&lt;p&gt;\n\nThe plan was simple: In complete secrecy, the Protectorate and its allies would create a defense force capable of meeting the alien presence in a direct confrontation. This new military initiative would be composed of Protectorate forces, as well as units from the&amp;nbsp;&lt;span style=&quot;background-color: initial;&quot;&gt;Ministry of Knowledge, the Northern Floran Tribes, House Toshiki, and the Kingdom of Grandbolt to the south.&amp;nbsp;&lt;/span&gt;&lt;span style=&quot;background-color: initial;&quot;&gt;&amp;nbsp;&lt;/span&gt;&lt;/p&gt;" style="text;html=1;spacing=5;spacingTop=-20;whiteSpace=wrap;overflow=hidden;rounded=0;strokeColor=default;opacity=50;" vertex="1" parent="1">
          <mxGeometry x="4370" y="365" width="330" height="170" as="geometry" />
        </mxCell>
      </root>
    </mxGraphModel>
  </diagram>
</mxfile>
